<?xml version="1.0" encoding="UTF-8" standalone="no" ?>
<!DOCTYPE svg PUBLIC "-//W3C//DTD SVG 1.1//EN" "http://www.w3.org/Graphics/SVG/1.1/DTD/svg11.dtd">
<svg xmlns="http://www.w3.org/2000/svg" xmlns:xlink="http://www.w3.org/1999/xlink" version="1.1" width="400" height="400" viewBox="0 0 400 400" xml:space="preserve">
<desc>Created with Fabric.js 3.6.2</desc>
<defs>
</defs>
<g transform="matrix(3.33 0 0 3.33 200 200)" id="Polygon-24"  >
<polygon style="stroke: none; stroke-width: 1; stroke-dasharray: none; stroke-linecap: butt; stroke-dashoffset: 0; stroke-linejoin: miter; stroke-miterlimit: 4; fill: rgb(126,78,163); fill-rule: evenodd; opacity: 1;"  points="0,-30 25.98,-15 25.98,15 0,30 -25.98,15 -25.98,-15 " />
</g>
<g transform="matrix(3.33 0 0 3.33 200 225)" id="Polygon-24"  >
<polygon style="stroke: none; stroke-width: 1; stroke-dasharray: none; stroke-linecap: butt; stroke-dashoffset: 0; stroke-linejoin: miter; stroke-miterlimit: 4; fill: rgb(0,0,0); fill-opacity: 0.4; fill-rule: evenodd; opacity: 1;"  points="25.98,-22.5 25.98,7.5 0,22.5 -25.98,7.5 " />
</g>
<g transform="matrix(3.33 0 0 3.33 200 198.1)" id="Podcast"  >
<path style="stroke: none; stroke-width: 1; stroke-dasharray: none; stroke-linecap: butt; stroke-dashoffset: 0; stroke-linejoin: miter; stroke-miterlimit: 4; fill: rgb(255,255,255); fill-rule: evenodd; opacity: 1;"  transform=" translate(-421, -217.43)" d="M 420.999902 217.209684 C 423.073641 217.209684 424.754927 215.626253 424.754927 213.672887 C 424.754927 211.719614 423.073739 210.136089 420.999902 210.136089 C 418.926065 210.136089 417.244975 211.719614 417.244975 213.672887 C 417.244975 215.626253 418.926163 217.209684 420.999902 217.209684 L 420.999902 217.209684 Z M 420.999902 204.835341 C 415.818103 204.835341 411.617488 208.792021 411.617488 213.672794 C 411.617488 216.046413 412.61122 218.201241 414.227799 219.788935 C 414.690351 219.08771 415.329081 218.419661 416.209773 217.907388 C 415.10604 216.800181 414.428781 215.311364 414.428781 213.672794 C 414.428781 210.254428 417.370761 207.483352 420.999902 207.483352 C 424.629141 207.483352 427.571023 210.254428 427.571023 213.672794 C 427.571023 215.314978 426.890823 216.806575 425.782874 217.914523 C 426.662096 218.428557 427.299061 219.098182 427.760044 219.800519 C 429.38378 218.21162 430.382414 216.052251 430.382414 213.672794 C 430.382414 208.792114 426.181799 204.835341 420.999902 204.835341 L 420.999902 204.835341 Z M 420.999902 199.544231 C 412.715632 199.544231 406 205.869896 406 213.672887 C 406 218.76513 408.860607 223.227504 413.150341 225.713993 C 413.064948 225.101823 413.010242 224.444801 413.010242 223.764149 C 413.010242 223.764149 413.006124 223.238068 413.156321 222.478276 C 410.49101 220.369691 408.796391 217.207924 408.796391 213.672887 C 408.796391 207.324518 414.260054 202.178249 421 202.178249 C 427.739946 202.178249 433.203707 207.324518 433.203707 213.672887 C 433.203707 217.21543 431.501833 220.383128 428.826718 222.491713 C 428.974072 223.244184 428.97015 223.764056 428.97015 223.764056 C 428.97015 224.449342 428.914856 225.110719 428.828483 225.726318 C 433.130079 223.242423 436 218.773563 436 213.672887 C 435.999902 205.869803 429.284172 199.544231 420.999902 199.544231 L 420.999902 199.544231 Z M 420.999902 218.978083 C 418.148511 218.978083 415.836829 221.155429 415.836829 223.841249 C 415.836829 226.526976 418.148413 235.313462 420.999902 235.313462 C 423.851391 235.313462 426.162975 226.527069 426.162975 223.841249 C 426.162975 221.155429 423.851391 218.978083 420.999902 218.978083 L 420.999902 218.978083 Z" stroke-linecap="round" />
</g>
</svg>